<?xml version="1.0" encoding="UTF-8"?>
<svg version="1.1" xmlns="http://www.w3.org/2000/svg" width="274" height="67">
<path d="M0 0 C4.88741558 -0.00318092 9.77480885 -0.01096124 14.66221577 -0.02046734 C21.34183533 -0.03292597 28.02135043 -0.03246048 34.70098072 -0.02375752 C37.16245175 -0.02175022 39.62392775 -0.02280646 42.0853954 -0.02735478 C54.55301076 -0.04633988 66.94198679 0.19689479 79.37818867 1.1365456 C80.44194438 1.2139888 81.50570009 1.291432 82.60169083 1.37122196 C83.58062082 1.45380378 84.5595508 1.53638561 85.56814533 1.62146991 C86.42852185 1.69309471 87.28889838 1.7647195 88.17534691 1.83851475 C90.3838039 2.24494404 90.3838039 2.24494404 93.3838039 4.24494404 C93.1338039 6.61994404 93.1338039 6.61994404 92.3838039 9.24494404 C89.46639373 11.14305257 86.97261673 11.54103488 83.53712422 11.71564716 C82.57381184 11.76910297 81.61049946 11.82255878 80.6179958 11.87763447 C79.57649372 11.92665912 78.53499165 11.97568378 77.4619289 12.02619404 C76.37031452 12.08520893 75.27870014 12.14422382 74.15400654 12.20502704 C70.64765432 12.39334695 67.14083857 12.5698335 63.6338039 12.74494404 C59.07624426 12.97960987 54.5189982 13.21969656 49.9619289 13.46369404 C48.84145161 13.52323261 47.72097431 13.58277118 46.56654316 13.64411396 C35.14926338 14.27281427 23.77412741 15.24245729 12.3838039 16.24494404 C22.6138039 16.57494404 32.8438039 16.90494404 43.3838039 17.24494404 C43.7138039 18.89494404 44.0438039 20.54494404 44.3838039 22.24494404 C34.14381273 29.10490957 19.45702318 30.1061512 7.44288594 31.7927956 C5.09123845 32.12597467 2.74368152 32.48183983 0.39552265 32.83869404 C-1.1133969 33.05619721 -2.6225054 33.27239453 -4.1318211 33.48713154 C-4.82656536 33.59427479 -5.52130962 33.70141804 -6.23710674 33.81180805 C-9.98825067 34.31681676 -12.42989829 34.42295831 -15.6161961 32.24494404 C-15.6161961 30.92494404 -15.6161961 29.60494404 -15.6161961 28.24494404 C-10.21203906 26.66873157 -4.87923859 25.83918737 0.6963039 25.17463154 C1.43687031 25.08431659 2.17743672 24.99400165 2.94044453 24.9009499 C4.75462487 24.68002955 6.5691783 24.46217668 8.3838039 24.24494404 C7.31305119 24.25160587 6.24229847 24.25826771 5.1390987 24.26513141 C-4.94049354 24.32588628 -15.02004876 24.3708896 -25.09978241 24.40038055 C-30.28217032 24.41605173 -35.46441069 24.43731651 -40.64671367 24.4712624 C-45.64579451 24.50380403 -50.64473322 24.52178611 -55.64391178 24.52957577 C-57.55334947 24.53512862 -59.4627792 24.54597171 -61.37215656 24.56213421 C-64.04197301 24.5838395 -66.71119851 24.58691387 -69.38108867 24.58552021 C-70.17446636 24.59630604 -70.96784405 24.60709186 -71.78526348 24.61820453 C-77.16222673 24.58773415 -77.16222673 24.58773415 -79.63089031 22.72365803 C-80.11861667 21.9916946 -80.11861667 21.9916946 -80.6161961 21.24494404 C-79.96228069 19.30227131 -79.96228069 19.30227131 -78.6161961 17.24494404 C-76.19308513 16.5739693 -76.19308513 16.5739693 -73.07884258 16.32770771 C-71.8982275 16.22428562 -70.71761242 16.12086353 -69.50122112 16.01430744 C-68.1972488 15.9189722 -66.89327648 15.82363697 -65.54978985 15.72541279 C-64.16742378 15.61037763 -62.78521815 15.49340048 -61.40316814 15.37462848 C-58.40360862 15.11916221 -55.40344122 14.87384327 -52.40251201 14.63501972 C-47.51633862 14.24227954 -42.63482138 13.8043542 -37.75340313 13.35676044 C-36.91815294 13.28026201 -36.08290275 13.20376358 -35.22234195 13.12494701 C-33.51616485 12.96863938 -31.80999257 12.81227906 -30.10382503 12.65586704 C-25.79140927 12.26244716 -21.47823018 11.87763558 -17.16502422 11.49299091 C-16.30652181 11.41638799 -15.44801941 11.33978508 -14.56350178 11.26086086 C-12.81892341 11.10521402 -11.07434217 10.94959931 -9.32975811 10.7940163 C-4.8294598 10.39242412 -0.32927923 9.98951662 4.17091328 9.58674091 C12.9084329 8.80490118 21.6460752 8.02444362 30.3838039 7.24494404 C18.86301916 7.18210844 7.34223701 7.14238234 -4.1786961 7.11994404 C-5.05379204 7.118232 -5.92888798 7.11651996 -6.83050197 7.11475605 C-38.20215823 7.06078153 -69.53309135 7.59402898 -100.88987774 8.53351825 C-115.3710546 8.96497104 -129.84262308 9.34043617 -144.33103985 9.36994404 C-145.54659054 9.37453632 -146.76214123 9.37912861 -148.01452678 9.38386005 C-154.29992559 9.37271212 -160.38534722 9.08064301 -166.6161961 8.24494404 C-166.6161961 4.24494404 -166.6161961 4.24494404 -165.6161961 3.24494404 C-163.0995738 3.01358053 -160.60622663 2.84289847 -158.08372539 2.7158913 C-156.93396363 2.65369954 -156.93396363 2.65369954 -155.76097435 2.59025139 C-147.88951261 2.17926903 -140.01483277 1.91947582 -132.13572735 1.70978779 C-130.96815773 1.67794108 -130.96815773 1.67794108 -129.77700084 1.64545101 C-123.66116619 1.47971935 -117.54503243 1.32837418 -111.4286961 1.18244404 C-110.51130028 1.16037388 -109.59390445 1.13830372 -108.64870876 1.11556476 C-72.43472031 0.25322763 -36.2225959 0.02262325 0 0 Z " fill="#E0827B" transform="translate(173.61619609594345,15.755055963993073)"/>
<path d="M0 0 C0 0.66 0 1.32 0 2 C3.42248212 4.28165474 4.72718062 4.26729869 8.7565918 4.31884766 C10.52808846 4.34865219 10.52808846 4.34865219 12.33537292 4.37905884 C13.61044205 4.39061005 14.88551117 4.40216125 16.19921875 4.4140625 C17.50454056 4.43342865 18.80986237 4.4527948 20.15473938 4.4727478 C23.62180522 4.52407634 27.08890989 4.56369793 30.55615234 4.60089111 C34.09547536 4.64092641 37.63463677 4.69202087 41.17382812 4.7421875 C48.11576733 4.83895513 55.05781025 4.92335716 62 5 C62.495 6.485 62.495 6.485 63 8 C58.13553082 11.69028696 54.16116249 13.63867871 48.1875 14.875 C47.38376953 15.04209473 46.58003906 15.20918945 45.75195312 15.38134766 C38.22149662 16.87493451 30.64179329 18.03130432 23.03994751 19.09039307 C21.68134596 19.2799408 20.32324207 19.47309086 18.96566772 19.66986084 C17.04138795 19.94621626 15.11446102 20.20394302 13.1875 20.4609375 C12.06730469 20.61353027 10.94710937 20.76612305 9.79296875 20.92333984 C7 21 7 21 4 19 C4 17.68 4 16.36 4 15 C9.40415704 13.42378753 14.73695751 12.59424334 20.3125 11.9296875 C21.05306641 11.83937256 21.79363281 11.74905762 22.55664062 11.65600586 C24.37082097 11.43508551 26.1853744 11.21723265 28 11 C26.92924728 11.00666183 25.85849457 11.01332367 24.7552948 11.02018738 C14.67570255 11.08094224 4.59614734 11.12594556 -5.48358631 11.15543652 C-10.66597422 11.17110769 -15.84821459 11.19237248 -21.03051758 11.22631836 C-26.02959841 11.25886 -31.02853713 11.27684207 -36.02771568 11.28463173 C-37.93715338 11.29018459 -39.8465831 11.30102768 -41.75596046 11.31719017 C-44.42577692 11.33889546 -47.09500242 11.34196984 -49.76489258 11.34057617 C-50.55827026 11.351362 -51.35164795 11.36214783 -52.16906738 11.3732605 C-57.54603063 11.34279011 -57.54603063 11.34279011 -60.01469421 9.47871399 C-60.33984512 8.99073837 -60.66499603 8.50276276 -61 8 C-60.55078125 6.078125 -60.55078125 6.078125 -59 4 C-55.9673728 3.35514848 -53.25578902 2.97614645 -50.1875 2.75 C-48.8876416 2.63398438 -48.8876416 2.63398438 -47.56152344 2.515625 C-41.93457339 2.04723525 -36.38320222 1.94535508 -30.73828125 2.0625 C-22.59104775 1.92628711 -14.46516372 0.97346297 -6.35913086 0.18359375 C-4.24492986 0.01906108 -2.12059352 0 0 0 Z " fill="#FC180A" transform="translate(154,29)"/>
<path d="M0 0 C5.46374883 -0.00559885 10.92726252 -0.0299488 16.3909359 -0.05797195 C20.63728576 -0.07651014 24.88357599 -0.08179805 29.12996292 -0.08333588 C31.14824407 -0.08635694 33.16652431 -0.09436698 35.18476486 -0.10752106 C37.97314532 -0.12447767 40.76090611 -0.12273316 43.54931641 -0.11621094 C44.37500626 -0.12542572 45.20069611 -0.1346405 46.05140686 -0.14413452 C51.69662925 -0.10253621 51.69662925 -0.10253621 53.82099342 1.76320267 C54.23874723 2.25062313 54.65650105 2.73804359 55.08691406 3.24023438 C52.47157072 5.85557772 50.6150319 5.49214588 47.05273151 5.53030491 C45.7766819 5.52883914 45.7766819 5.52883914 44.47485352 5.52734375 C43.12620728 5.53765704 43.12620728 5.53765704 41.75031567 5.54817867 C38.73359084 5.56916591 35.71698105 5.57631726 32.70019531 5.58398438 C30.56367344 5.59703235 28.42715779 5.61113787 26.29064941 5.62623596 C21.71637265 5.65721526 17.14211071 5.68289422 12.56777954 5.70437622 C0.55314042 5.76198068 -11.46122316 5.85645831 -23.47558594 5.95507812 C-25.28726792 5.96960935 -25.28726792 5.96960935 -27.13554955 5.98443413 C-52.50202228 6.19308976 -77.85219663 6.76088397 -103.20784092 7.51198006 C-117.98146824 7.94944733 -132.74543895 8.32901977 -147.52636719 8.36132812 C-148.74833298 8.36616714 -149.97029877 8.37100616 -151.22929382 8.37599182 C-157.54265562 8.36662593 -163.6547211 8.08149541 -169.91308594 7.24023438 C-169.91308594 3.24023438 -169.91308594 3.24023438 -168.91308594 2.24023438 C-166.24036634 1.99592134 -163.5922768 1.81478157 -160.91333008 1.68164062 C-160.10203424 1.63938858 -159.29073839 1.59713654 -158.45485783 1.55360413 C-151.01010733 1.19421357 -143.58086147 1.12193528 -136.12890434 1.16506958 C-133.81225044 1.17828741 -131.49565639 1.18446156 -129.17897034 1.18920898 C-123.41827266 1.20231753 -117.657632 1.22624935 -111.89697266 1.25061035 C-106.2343829 1.27412656 -100.57181037 1.29269653 -94.90917969 1.30273438 C-94.10253876 1.30417198 -93.29589783 1.30560959 -92.46481323 1.30709076 C-81.66364845 1.31885916 -70.89184005 1.14073284 -60.09667969 0.75585938 C-40.0686031 0.05023203 -20.0388361 0.01742386 0 0 Z " fill="#C50E06" transform="translate(176.9130859375,16.759765625)"/>
<path d="M0 0 C0 0.66 0 1.32 0 2 C-5.94 2.33 -11.88 2.66 -18 3 C-17.67 3.99 -17.34 4.98 -17 6 C17.65 6 52.3 6 88 6 C87 8 87 8 82 10 C86.62 9.67 91.24 9.34 96 9 C96 9.66 96 10.32 96 11 C85.09544074 13.58193595 74.13503339 15.55644485 63.03692627 17.09240723 C61.67955567 17.28072191 60.32273195 17.47302163 58.9664917 17.66931152 C57.04192448 17.94575439 55.11472929 18.20370824 53.1875 18.4609375 C52.06730469 18.61353027 50.94710937 18.76612305 49.79296875 18.92333984 C47 19 47 19 44 17 C44 15.68 44 14.36 44 13 C49.40415704 11.42378753 54.73695751 10.59424334 60.3125 9.9296875 C61.05306641 9.83937256 61.79363281 9.74905762 62.55664062 9.65600586 C64.37082097 9.43508551 66.1853744 9.21723265 68 9 C66.92924728 9.00666183 65.85849457 9.01332367 64.7552948 9.02018738 C54.67570255 9.08094224 44.59614734 9.12594556 34.51641369 9.15543652 C29.33402578 9.17110769 24.15178541 9.19237248 18.96948242 9.22631836 C13.97040159 9.25886 8.97146287 9.27684207 3.97228432 9.28463173 C2.06284662 9.29018459 0.1534169 9.30102768 -1.75596046 9.31719017 C-4.42577692 9.33889546 -7.09500242 9.34196984 -9.76489258 9.34057617 C-10.55827026 9.351362 -11.35164795 9.36214783 -12.16906738 9.3732605 C-17.54603063 9.34279011 -17.54603063 9.34279011 -20.01469421 7.47871399 C-20.33984512 6.99073837 -20.66499603 6.50276276 -21 6 C-20.53125 4.078125 -20.53125 4.078125 -19 2 C-16.07377684 1.36955355 -13.4586014 0.98319026 -10.5 0.75 C-9.71496094 0.67265625 -8.92992188 0.5953125 -8.12109375 0.515625 C-5.41310461 0.25550941 -2.72226402 0 0 0 Z " fill="#D76A63" transform="translate(114,31)"/>
<path d="M0 0 C3.44656231 0.0717991 6.89326731 0.13593862 10.33996582 0.20080566 C17.05430797 0.32867318 23.76846918 0.46392357 30.48254395 0.60510254 C30.48254395 0.93510254 30.48254395 1.26510254 30.48254395 1.60510254 C44.67254395 1.93510254 58.86254395 2.26510254 73.48254395 2.60510254 C70.60686937 5.48077711 68.51071175 4.91997244 64.47961426 5.01574707 C63.39566124 5.04544586 63.39566124 5.04544586 62.28981018 5.07574463 C59.88023136 5.13927485 57.47058012 5.1887298 55.06066895 5.23791504 C53.36417852 5.27915248 51.66770635 5.32114763 49.97125244 5.36386108 C46.39000317 5.4520211 42.80868478 5.5337341 39.22717285 5.61047363 C34.7314235 5.70689721 30.23604115 5.81446833 25.74065399 5.92639542 C8.98437328 6.34212826 -7.77125823 6.68236411 -24.53308105 6.72229004 C-26.32790924 6.72991867 -26.32790924 6.72991867 -28.15899658 6.73770142 C-34.36370386 6.72999741 -40.36610026 6.42674908 -46.51745605 5.60510254 C-46.51745605 1.60510254 -46.51745605 1.60510254 -45.51745605 0.60510254 C-30.46546637 -1.21625388 -15.11439589 -0.32123438 0 0 Z " fill="#B23C36" transform="translate(53.5174560546875,18.3948974609375)"/>
<path d="M0 0 C-0.33 0.99 -0.66 1.98 -1 3 C-4.3 3.66 -7.6 4.32 -11 5 C-11 5.33 -11 5.66 -11 6 C-22.88 6.99 -22.88 6.99 -35 8 C-24.77 8.33 -14.54 8.66 -4 9 C-3.505 11.475 -3.505 11.475 -3 14 C-5 16 -5 16 -7.625 16.125 C-8.40875 16.08375 -9.1925 16.0425 -10 16 C-6.25 13 -6.25 13 -4 13 C-4.495 12.01 -4.495 12.01 -5 11 C-12.46810226 10.86827754 -19.93622549 10.73780357 -27.40437603 10.60884857 C-30.87351725 10.54890814 -34.34265043 10.48856523 -37.81176758 10.42724609 C-41.81589675 10.35648902 -45.82005606 10.28758401 -49.82421875 10.21875 C-51.04767502 10.19687622 -52.27113129 10.17500244 -53.53166199 10.15246582 C-61.35526966 10.01975198 -69.175313 9.97434312 -77 10 C-77 9.67 -77 9.34 -77 9 C-75.906875 8.855625 -74.81375 8.71125 -73.6875 8.5625 C-70.06877013 8.11711896 -70.06877013 8.11711896 -67 7 C-67 6.34 -67 5.68 -67 5 C-67.94359375 5.13277344 -68.8871875 5.26554687 -69.859375 5.40234375 C-81.93867986 7.06385456 -93.78457844 8.19492694 -106 8 C-106 7.67 -106 7.34 -106 7 C-96.46281283 6.07096348 -86.92428644 5.1574536 -77.38389301 4.26194 C-72.9504374 3.84533839 -68.51754647 3.42406542 -64.08569336 2.99072266 C-42.6491729 0.89846859 -21.55538576 -0.5919888 0 0 Z " fill="#CE6E67" transform="translate(221,24)"/>
<path d="M0 0 C0 1.32 0 2.64 0 4 C-9.34058823 6.72433823 -20.01241084 6.10916276 -29.6875 6.1875 C-30.54859375 6.20047119 -31.4096875 6.21344238 -32.296875 6.22680664 C-33.51697266 6.22861938 -33.51697266 6.22861938 -34.76171875 6.23046875 C-35.843927 6.23663208 -35.843927 6.23663208 -36.94799805 6.24291992 C-39 6 -39 6 -43 4 C-35.575 2.515 -35.575 2.515 -28 1 C-28.99 0.34 -29.98 -0.32 -31 -1 C-21.88908864 -2.40167867 -8.50033428 -4.25016714 0 0 Z " fill="#FB1308" transform="translate(265,20)"/>
<path d="M0 0 C0 0.66 0 1.32 0 2 C-5.94 2.33 -11.88 2.66 -18 3 C-17.67 3.99 -17.34 4.98 -17 6 C9.73 6.33 36.46 6.66 64 7 C64 7.33 64 7.66 64 8 C48.72808136 9.25972089 33.42347209 9.22106679 18.11132812 9.24023438 C14.33754316 9.24579876 10.56410465 9.27005571 6.79043007 9.29820633 C3.86511168 9.31677884 0.93987968 9.3220346 -1.98549271 9.32357025 C-3.37857662 9.32659111 -4.77165922 9.33460054 -6.1646843 9.34775543 C-8.09718434 9.36475911 -10.02983309 9.36109913 -11.96240234 9.35644531 C-13.05918304 9.36009094 -14.15596375 9.36373657 -15.28598022 9.36749268 C-18 9 -18 9 -19.87734985 7.47772217 C-20.2478244 6.99007385 -20.61829895 6.50242554 -21 6 C-20.53125 4.078125 -20.53125 4.078125 -19 2 C-16.07377684 1.36955355 -13.4586014 0.98319026 -10.5 0.75 C-9.71496094 0.67265625 -8.92992188 0.5953125 -8.12109375 0.515625 C-5.41310461 0.25550941 -2.72226402 0 0 0 Z " fill="#947E7F" transform="translate(114,31)"/>
<path d="M0 0 C3.45317613 0.07172068 6.90649234 0.13590845 10.35980225 0.20080566 C17.09041769 0.32877498 23.82085564 0.46402792 30.5512085 0.60510254 C30.5512085 0.93510254 30.5512085 1.26510254 30.5512085 1.60510254 C44.7412085 1.93510254 58.9312085 2.26510254 73.5512085 2.60510254 C73.5512085 2.93510254 73.5512085 3.26510254 73.5512085 3.60510254 C66.30931661 3.62841999 59.06743301 3.64611547 51.82551098 3.65691471 C48.46168363 3.66210153 45.09788224 3.66912145 41.73406982 3.68054199 C37.85409884 3.69275898 33.97416405 3.69836544 30.09417725 3.70275879 C28.90414597 3.70792007 27.71411469 3.71308136 26.48802185 3.71839905 C20.35909461 3.718805 14.36431655 3.46688962 8.26853943 2.84437561 C3.36701405 2.41277451 -1.54278745 2.36795778 -6.46051025 2.28869629 C-7.55474808 2.26791519 -8.6489859 2.24713409 -9.77638245 2.22572327 C-13.22962924 2.16098193 -16.68294396 2.10169803 -20.1362915 2.04260254 C-22.49502214 1.99934537 -24.85374622 1.95572895 -27.21246338 1.91174316 C-32.95783686 1.80537934 -38.70327604 1.7034812 -44.4487915 1.60510254 C-44.4487915 1.27510254 -44.4487915 0.94510254 -44.4487915 0.60510254 C-29.64746915 -0.82233794 -14.84444774 -0.31444628 0 0 Z " fill="#F6281C" transform="translate(53.44879150390625,18.3948974609375)"/>
<path d="M0 0 C17.82 0 35.64 0 54 0 C54 0.66 54 1.32 54 2 C49.60598678 5.78794243 45.60825105 6.23595105 39.9375 6.6875 C38.68839844 6.79449219 37.43929687 6.90148438 36.15234375 7.01171875 C33 7 33 7 31 5 C33.31 4.34 35.62 3.68 38 3 C18.695 2.505 18.695 2.505 -1 2 C-0.67 1.34 -0.34 0.68 0 0 Z " fill="#FB0F04" transform="translate(163,35)"/>
<path d="M0 0 C0.89267578 -0.00773437 1.78535156 -0.01546875 2.70507812 -0.0234375 C3.56166016 -0.02085938 4.41824219 -0.01828125 5.30078125 -0.015625 C6.07204346 -0.01336914 6.84330566 -0.01111328 7.63793945 -0.00878906 C9.6875 0.25 9.6875 0.25 12.6875 2.25 C10.39120006 3.39814997 8.61051914 3.55769809 6.0625 3.8125 C4.83660156 3.93818359 4.83660156 3.93818359 3.5859375 4.06640625 C2.64621094 4.15728516 2.64621094 4.15728516 1.6875 4.25 C1.6875 4.91 1.6875 5.57 1.6875 6.25 C-1.08201222 6.63922874 -3.8520547 7.01184952 -6.625 7.375 C-7.41068359 7.48714844 -8.19636719 7.59929688 -9.00585938 7.71484375 C-9.76318359 7.81152344 -10.52050781 7.90820312 -11.30078125 8.0078125 C-11.99727783 8.1020752 -12.69377441 8.19633789 -13.41137695 8.29345703 C-15.3125 8.25 -15.3125 8.25 -18.3125 6.25 C-18.3125 4.93 -18.3125 3.61 -18.3125 2.25 C-12.08401919 0.42278561 -6.47402749 -0.05733456 0 0 Z " fill="#E81910" transform="translate(176.3125,41.75)"/>
<path d="M0 0 C12.08336669 -0.02322286 24.16672803 -0.04096566 36.25011253 -0.05181217 C41.86157396 -0.05701929 47.47302005 -0.06407734 53.08447266 -0.07543945 C58.50502294 -0.0863457 63.92555852 -0.09229318 69.34611893 -0.09487724 C71.40884253 -0.09671758 73.47156538 -0.10031121 75.53428268 -0.10573006 C78.4348191 -0.11304329 81.33529562 -0.11398663 84.23583984 -0.11352539 C85.50036484 -0.1189183 85.50036484 -0.1189183 86.79043579 -0.12442017 C92.57839961 -0.11453234 98.25189962 0.33063859 104 1 C104 1.33 104 1.66 104 2 C96.96094956 2.93854006 90.09727428 3.10808032 83 3 C83 2.67 83 2.34 83 2 C41.915 1.505 41.915 1.505 0 1 C0 0.67 0 0.34 0 0 Z " fill="#FAB0A9" transform="translate(138,20)"/>
<path d="M0 0 C0.96679688 0.00902344 1.93359375 0.01804687 2.9296875 0.02734375 C3.65414062 0.03894531 4.37859375 0.05054687 5.125 0.0625 C4.795 1.0525 4.465 2.0425 4.125 3.0625 C1.23322183 4.17912325 -1.56786303 4.17985344 -4.640625 4.16015625 C-5.53007812 4.15693359 -6.41953125 4.15371094 -7.3359375 4.15039062 C-8.25632813 4.14201172 -9.17671875 4.13363281 -10.125 4.125 C-11.06085938 4.12048828 -11.99671875 4.11597656 -12.9609375 4.11132812 C-15.26569041 4.09956918 -17.57031227 4.08313426 -19.875 4.0625 C-19.875 4.3925 -19.875 4.7225 -19.875 5.0625 C-22.515 5.0625 -25.155 5.0625 -27.875 5.0625 C-27.875 4.4025 -27.875 3.7425 -27.875 3.0625 C-29.525 3.0625 -31.175 3.0625 -32.875 3.0625 C-29.00501127 0.45179332 -24.97155828 0.87322902 -20.5 1 C-13.56131876 1.16262534 -6.89999704 -0.08414631 0 0 Z " fill="#FC180F" transform="translate(189.875,25.9375)"/>
<path d="M0 0 C4.93435744 0.49033237 9.18624659 0.34396694 14.0625 -0.5 C14.0625 0.16 14.0625 0.82 14.0625 1.5 C11.0422577 2.14870339 8.02136021 2.79404156 5 3.4375 C4.15244141 3.61990234 3.30488281 3.80230469 2.43164062 3.99023438 C-4.15991291 5.38998512 -10.60635091 6.65522122 -17.375 6.5625 C-18.67244141 6.54896484 -18.67244141 6.54896484 -19.99609375 6.53515625 C-20.63675781 6.52355469 -21.27742187 6.51195312 -21.9375 6.5 C-18.97571227 4.82889958 -16.56678808 4.17317248 -13.1875 3.875 C-12.38828125 3.80023438 -11.5890625 3.72546875 -10.765625 3.6484375 C-10.16234375 3.59945312 -9.5590625 3.55046875 -8.9375 3.5 C-10.2575 2.51 -11.5775 1.52 -12.9375 0.5 C-8.43520627 -0.42092372 -4.58284543 -0.45886538 0 0 Z " fill="#C35953" transform="translate(195.9375,40.5)"/>
<path d="M0 0 C1.70502387 0.10182398 3.41010225 0.20273954 5.11523438 0.30273438 C9.22335663 0.54557891 13.33055648 0.80050477 17.4375 1.0625 C17.4375 1.3925 17.4375 1.7225 17.4375 2.0625 C-0.7125 2.0625 -18.8625 2.0625 -37.5625 2.0625 C-37.2325 1.4025 -36.9025 0.7425 -36.5625 0.0625 C-24.26351507 -0.95886556 -12.30651011 -0.7888321 0 0 Z " fill="#FC1A0E" transform="translate(120.5625,18.9375)"/>
<path d="M0 0 C1.35047478 0.02437784 2.70095937 0.04821715 4.05145264 0.07154846 C7.56296188 0.13362891 11.07429165 0.2029 14.58563232 0.27380371 C18.1859131 0.3451855 21.78631861 0.40958069 25.38671875 0.47460938 C32.4194061 0.60263751 39.45192729 0.73828226 46.484375 0.87890625 C47.109375 3.25390625 47.109375 3.25390625 47.484375 5.87890625 C45.484375 7.87890625 45.484375 7.87890625 42.859375 8.00390625 C42.075625 7.96265625 41.291875 7.92140625 40.484375 7.87890625 C44.234375 4.87890625 44.234375 4.87890625 46.484375 4.87890625 C45.989375 3.88890625 45.989375 3.88890625 45.484375 2.87890625 C38.01627274 2.74718379 30.54814951 2.61670982 23.07999897 2.48775482 C19.61085775 2.42781439 16.14172457 2.36747148 12.67260742 2.30615234 C8.66847825 2.23539527 4.66431894 2.16649026 0.66015625 2.09765625 C-0.56330002 2.07578247 -1.78675629 2.05390869 -3.04728699 2.03137207 C-10.87089466 1.89865823 -18.690938 1.85324937 -26.515625 1.87890625 C-26.515625 1.54890625 -26.515625 1.21890625 -26.515625 0.87890625 C-17.63903264 -0.05718776 -8.91797339 -0.18948805 0 0 Z " fill="#D9A9A4" transform="translate(170.515625,32.12109375)"/>
<path d="M0 0 C4.14581819 -0.02931979 8.29160925 -0.04690557 12.4375 -0.0625 C13.60216797 -0.07087891 14.76683594 -0.07925781 15.96679688 -0.08789062 C33.29494653 -0.13670231 33.29494653 -0.13670231 38 3 C37.75 5.375 37.75 5.375 37 8 C33.48532951 10.54985898 29.95865652 10.20293808 25.75 10.125 C24.48671875 10.10695313 23.2234375 10.08890625 21.921875 10.0703125 C20.95765625 10.04710937 19.9934375 10.02390625 19 10 C19 9.67 19 9.34 19 9 C23.29 9 27.58 9 32 9 C32 8.34 32 7.68 32 7 C33.32 7 34.64 7 36 7 C36 5.68 36 4.36 36 3 C21.95256351 1.44004309 21.95256351 1.44004309 8 3 C8 3.33 8 3.66 8 4 C6.35 4 4.7 4 3 4 C3 3.34 3 2.68 3 2 C2.01 1.67 1.02 1.34 0 1 C0 0.67 0 0.34 0 0 Z " fill="#BC4E48" transform="translate(229,17)"/>
<path d="M0 0 C0 0.66 0 1.32 0 2 C0.9793879 3.02019573 1.97895449 4.02149805 3 5 C3 5.33 3 5.66 3 6 C-3.6 6 -10.2 6 -17 6 C-17 5.01 -17 4.02 -17 3 C-17.66 2.67 -18.32 2.34 -19 2 C-16.58374679 1.66340751 -14.16707192 1.33061612 -11.75 1 C-10.72712891 0.85691406 -10.72712891 0.85691406 -9.68359375 0.7109375 C-6.40628012 0.2654774 -3.31615847 0 0 0 Z " fill="#FB2317" transform="translate(154,29)"/>
<path d="M0 0 C1.22589844 0.01353516 1.22589844 0.01353516 2.4765625 0.02734375 C3.41628906 0.04474609 3.41628906 0.04474609 4.375 0.0625 C4.375 0.3925 4.375 0.7225 4.375 1.0625 C18.565 1.3925 32.755 1.7225 47.375 2.0625 C47.375 2.3925 47.375 2.7225 47.375 3.0625 C28.565 3.0625 9.755 3.0625 -9.625 3.0625 C-5.93535266 0.60273511 -4.35071521 -0.06215307 0 0 Z " fill="#FB564C" transform="translate(79.625,18.9375)"/>
<path d="M0 0 C0 0.66 0 1.32 0 2 C-0.99 2.33 -1.98 2.66 -3 3 C-2.01 3.66 -1.02 4.32 0 5 C-3.24992446 5.05819424 -6.49971435 5.09366116 -9.75 5.125 C-10.67039063 5.14175781 -11.59078125 5.15851562 -12.5390625 5.17578125 C-13.42851562 5.18222656 -14.31796875 5.18867188 -15.234375 5.1953125 C-16.45979004 5.21102295 -16.45979004 5.21102295 -17.70996094 5.22705078 C-20.21887518 4.97829916 -21.83395625 4.25700129 -24 3 C-16.02477311 1.46458249 -8.14076808 0 0 0 Z " fill="#FC271D" transform="translate(246,21)"/>
<path d="M0 0 C-0.33 0.99 -0.66 1.98 -1 3 C-8.65083958 4.24911667 -16.27440986 4.09053426 -24 4 C-24 3.34 -24 2.68 -24 2 C-17.1909863 -1.40450685 -7.40050074 -0.11444073 0 0 Z " fill="#FB1308" transform="translate(221,24)"/>
<path d="M0 0 C3.96 0 7.92 0 12 0 C12 0.66 12 1.32 12 2 C9.66633067 4.01178391 7.95214486 5.01595171 5 6 C1.8125 4.5625 1.8125 4.5625 -1 3 C-0.67 2.01 -0.34 1.02 0 0 Z " fill="#EB1609" transform="translate(205,35)"/>
<path d="M0 0 C1.65 0.33 3.3 0.66 5 1 C5 1.99 5 2.98 5 4 C-0.94 4 -6.88 4 -13 4 C-13.33 3.34 -13.66 2.68 -14 2 C-9.38 2 -4.76 2 0 2 C0 1.34 0 0.68 0 0 Z " fill="#E71206" transform="translate(157,33)"/>
<path d="M0 0 C0 0.33 0 0.66 0 1 C-1.2065625 1.185625 -1.2065625 1.185625 -2.4375 1.375 C-3.283125 1.58125 -4.12875 1.7875 -5 2 C-5.33 2.66 -5.66 3.32 -6 4 C-2.37 4 1.26 4 5 4 C2.7671123 6.2328877 2.08090185 6.36778152 -0.9375 6.75 C-1.97197266 6.89695312 -1.97197266 6.89695312 -3.02734375 7.046875 C-5 7 -5 7 -8 5 C-8 3.68 -8 2.36 -8 1 C-5.29120665 -0.35439668 -2.99066732 -0.06501451 0 0 Z " fill="#A4716C" transform="translate(166,43)"/>
<path d="M0 0 C0 0.66 0 1.32 0 2 C-5.94 2.33 -11.88 2.66 -18 3 C-17.67 4.32 -17.34 5.64 -17 7 C-17.99 7.33 -18.98 7.66 -20 8 C-20.625 6.125 -20.625 6.125 -21 4 C-18.02545538 1.02545538 -14.51031611 1.27669012 -10.5 0.875 C-9.71496094 0.78863281 -8.92992188 0.70226562 -8.12109375 0.61328125 C-2.44580853 0 -2.44580853 0 0 0 Z " fill="#C88780" transform="translate(114,31)"/>
<path d="M0 0 C1.85772162 0.08984301 3.71247985 0.24611861 5.5625 0.4375 C7.08037109 0.59025391 7.08037109 0.59025391 8.62890625 0.74609375 C9.80259766 0.87177734 9.80259766 0.87177734 11 1 C9.5 3 9.5 3 7 5 C4.24128373 5.35800135 1.79902476 5.18660165 -1 5 C-1 1 -1 1 0 0 Z " fill="#A80E09" transform="translate(8,19)"/>
<path d="M0 0 C3.63 0 7.26 0 11 0 C10.67 0.99 10.34 1.98 10 3 C6.37 3 2.74 3 -1 3 C-0.67 2.01 -0.34 1.02 0 0 Z " fill="#FC120B" transform="translate(184,26)"/>
<path d="M0 0 C1.67542976 0.28604898 3.34385343 0.61781233 5 1 C4.01 1.495 4.01 1.495 3 2 C3 2.66 3 3.32 3 4 C7.29 4.33 11.58 4.66 16 5 C16 5.33 16 5.66 16 6 C14.2709226 6.02725341 12.54171824 6.04650987 10.8125 6.0625 C9.36810547 6.07990234 9.36810547 6.07990234 7.89453125 6.09765625 C5.14423487 6.00486622 2.67520409 5.62111685 0 5 C-0.5625 3.0625 -0.5625 3.0625 -1 1 C-0.67 0.67 -0.34 0.34 0 0 Z " fill="#A2261D" transform="translate(194,24)"/>
<path d="M0 0 C0.98484375 0.11085938 1.9696875 0.22171875 2.984375 0.3359375 C3.73203125 0.43132813 4.4796875 0.52671875 5.25 0.625 C4.26 2.11 4.26 2.11 3.25 3.625 C1.3046875 3.91796875 1.3046875 3.91796875 -0.875 3.8125 C-2.15375 3.750625 -3.4325 3.68875 -4.75 3.625 C-4.75 2.965 -4.75 2.305 -4.75 1.625 C-6.4 1.625 -8.05 1.625 -9.75 1.625 C-6.30824478 -0.52199969 -3.9779708 -0.47356795 0 0 Z " fill="#F31F16" transform="translate(166.75,27.375)"/>
<path d="M0 0 C2.64 0 5.28 0 8 0 C7.67 0.66 7.34 1.32 7 2 C4.24921116 2.91692961 2.64051087 3.10886083 -0.1875 3.0625 C-2.0746875 3.0315625 -2.0746875 3.0315625 -4 3 C-2.68 2.67 -1.36 2.34 0 2 C0 1.34 0 0.68 0 0 Z " fill="#F78E86" transform="translate(194,37)"/>
<path d="M0 0 C1.32 0 2.64 0 4 0 C4 0.66 4 1.32 4 2 C4.66 2.66 5.32 3.32 6 4 C3.36 4 0.72 4 -2 4 C-1.34 2.68 -0.68 1.36 0 0 Z " fill="#FB2A1C" transform="translate(150,29)"/>
</svg>
